<svg xmlns="http://www.w3.org/2000/svg" data-name="Layer 1" viewBox="-5.0 -10.0 110.0 135.0" x="0px" y="0px"><defs><style>.cls-1{fill-rule:evenodd;}</style></defs><title>a</title><path class="cls-1" d="M40.261,49.615c-.484.952-1.236,7.73-.785,8.4.181.269,1.15.1,1.48.01a5.065,5.065,0,0,0,1.43-.637c1.03-.691,2.221-2.766,3.113-4.22.658-1.075.658-1.075,1.68-1.458.911-.342,1.839-.688,2.746-.958a5.574,5.574,0,0,1,3.7-.214,19.324,19.324,0,0,1,4.235,2.434c1.629,1.08,4,2.707,6.362,4.334,2.373,1.638,4.072,2.818,5.309,3.678Q71.055,62,72.8,63.137a.42.42,0,0,0,.29-.056l3.931-1.809L73.26,53.264l-2.909-6.088C69.293,44.96,69.292,44.96,68.862,45a63.03,63.03,0,0,1-6.385.273c-4.034-.113-6.645-1.2-10.2-1.932-2.476-.511-2.995-.391-5.135,1.134-1.719,1.224-4.026,2.8-5.8,3.926a4.345,4.345,0,0,0-1.083,1.219ZM50,33.937A28.229,28.229,0,0,0,61.175,31.6a8.437,8.437,0,0,0-3.141-5.46,13.146,13.146,0,0,0-16.066,0,8.438,8.438,0,0,0-3.139,5.453A29.33,29.33,0,0,0,50,33.937Zm-11.616.4A30.933,30.933,0,0,1,19.1,32.024a1.364,1.364,0,0,1-.815-1.241c0-5.212,3.891-9.273,8.693-10.923a8.361,8.361,0,1,1,10.516,0,14.3,14.3,0,0,1,4.818,2.765,14.867,14.867,0,0,1,2.435-1.085,8.361,8.361,0,1,1,10.518,0A14.867,14.867,0,0,1,57.7,22.626a14.326,14.326,0,0,1,4.818-2.765,8.36,8.36,0,1,1,10.517,0c4.8,1.65,8.692,5.711,8.692,10.923a1.365,1.365,0,0,1-.911,1.287,32.134,32.134,0,0,1-9.7,2.725,29.736,29.736,0,0,1-9.42-.466A30.738,30.738,0,0,1,50,36.654a31.806,31.806,0,0,1-11.616-2.313ZM40,24.243a10.943,10.943,0,0,0-3.935,7.748,28.431,28.431,0,0,1-15-2.078A8.44,8.44,0,0,1,24.2,24.46,13.177,13.177,0,0,1,40,24.243ZM36.215,9.377a5.634,5.634,0,1,0,0,7.967,5.634,5.634,0,0,0,0-7.967ZM63.941,31.969a10.947,10.947,0,0,0-3.935-7.726,13.177,13.177,0,0,1,15.8.217,8.439,8.439,0,0,1,3.141,5.461,27.661,27.661,0,0,1-15,2.048ZM71.754,9.377a5.634,5.634,0,1,0,0,7.967,5.634,5.634,0,0,0,0-7.967ZM53.985,11.058a5.634,5.634,0,1,0,0,7.967,5.634,5.634,0,0,0,0-7.967ZM20.8,36.986,8.766,55.647l10.074,6.5L30.874,43.482,20.8,36.986ZM5.74,55.318,19.248,34.37a1.362,1.362,0,0,1,1.881-.411L33.49,41.931a1.361,1.361,0,0,1,.466,1.784c2.08.545,4.2,1.244,6.4,2.007,1.138-.875,2.443-1.7,3.556-2.4.662-.417,1.249-.786,1.649-1.071,2.774-1.976,4-2.252,7.255-1.582,3.344.69,6.084,1.778,9.734,1.88a55.514,55.514,0,0,0,5.563-.23l-.144-.308a1.357,1.357,0,0,1,.655-1.8l13.31-6.259a1.358,1.358,0,0,1,1.806.655L94.348,57.161a1.359,1.359,0,0,1-.655,1.806l-13.31,6.259a1.358,1.358,0,0,1-1.806-.655l-.393-.836-2.646,1.217c3.476,2.816,2.98,7.949-1,9.367,2.446,3.207,1.15,7.55-2.708,8.432a6.042,6.042,0,0,1,.41,1.032c1.309,4.49-3.108,7.9-7.484,6.078.085,4.274-4.782,6.624-8.738,4.1L46,87.667,43.4,90.911a4.782,4.782,0,0,1-8.477-2.532,4.788,4.788,0,0,1-5.3-4.75,4.788,4.788,0,0,1-5.052-5.067,4.8,4.8,0,0,1-3.687-7.8l2.124-2.653-2.7-3.249a1.36,1.36,0,0,1-1.806.3L6.15,57.2a1.36,1.36,0,0,1-.41-1.88ZM32.4,46.134c1.829.424,3.844,1.062,5.764,1.711a4.408,4.408,0,0,0-.26.408c-.869,1.439-1.584,8.6-1.109,10.34.864,3.165,4.868,2.556,7.1,1.056,1.6-1.074,2.948-3.473,3.922-5.062.17-.278.17-.278.306-.329.224-.084.559-.21,1.178-.43a12.159,12.159,0,0,1,2.988-.782c1.683.684,3.575,1.978,7.371,4.574,2.087,1.427,4.735,3.238,8.227,5.548l.9.629a24.4,24.4,0,0,0,3.16,2.033q.743.481,1.527.987a3.656,3.656,0,0,1,1.551,2.01c.742,2.542-2.087,4.006-4.453,2.48l-5.731-3.7a1.361,1.361,0,0,0-1.47,2.29l8.016,5.169a3.648,3.648,0,0,1,1.55,2.01c.745,2.554-2.1,4-4.452,2.48l-8.016-5.169a1.361,1.361,0,1,0-1.47,2.29l9.069,5.848a3.648,3.648,0,0,1,1.55,2.01c.744,2.552-2.1,4-4.452,2.48l-6.736-4.345a1.361,1.361,0,0,0-1.471,2.291l3.4,2.191a3.647,3.647,0,0,1,1.552,2.01c.739,2.533-2.077,4.014-4.443,2.5L47.706,85.53l2.775-3.465a4.8,4.8,0,0,0-2.973-7.736,4.8,4.8,0,0,0-4.273-6.139,4.8,4.8,0,0,0-7.085-4.982,4.786,4.786,0,0,0-8.18-1.288l-3.223,4.03c-1.016-1.181-1.994-2.356-2.863-3.505L32.4,46.134ZM71.007,42.09l10.852-5.1,9.451,20.1-10.852,5.1-.543-1.157c-.247-.654-.668-1.535-1.259-2.773l-2.91-6.091L71.007,42.09ZM35.7,85.235c.078-.117.162-.232.251-.344l7.078-8.846a4.893,4.893,0,0,1,.557-.583l.942-1.176a2.084,2.084,0,0,0-1.835-3.372,2.056,2.056,0,0,0-1.441.827l-5.748,7.183a1.3,1.3,0,0,1-.121.15L32.8,82.3a2.084,2.084,0,0,0,1.835,3.372,2.063,2.063,0,0,0,1.064-.438Zm2.689,4.277a2.064,2.064,0,0,0,2.9-.316l.06-.07,3.235-4.041a1.334,1.334,0,0,1,.088-.108l3.687-4.606A2.083,2.083,0,0,0,46.524,77a2.058,2.058,0,0,0-1.011.4l-7.385,9.233q-.142.176-.3.335a2.114,2.114,0,0,0-.2,1.151,2.072,2.072,0,0,0,.755,1.393Zm-11.6-15.139,6.573-8.216A2.074,2.074,0,0,0,30.021,63.7l-4.1,5.116a1.391,1.391,0,0,1-.157.2L23.012,72.46a2.082,2.082,0,0,0,1.837,3.368c.99-.107,1.386-.757,1.945-1.455Zm1.349,6.156a2.066,2.066,0,0,0,2.815-.382c.019-.024.039-.047.059-.069l2.2-2.746a1.387,1.387,0,0,1,.119-.149l6.8-8.5A2.085,2.085,0,0,0,38.3,65.312a2.051,2.051,0,0,0-1.441.826l-1.437,1.8L27.743,77.53a2.1,2.1,0,0,0,.321,2.93C28.091,80.482,28.118,80.505,28.143,80.529Z"/></svg>
