<svg xmlns="http://www.w3.org/2000/svg" version="1.1" viewBox="-5.0 -10.0 110.0 135.0">
 <path d="m50.055 73.488c-2.0469 0-3.7539-1.4883-4.0938-3.4375-0.56641 0.28516-1.2031 0.44922-1.8789 0.44922-2.293 0-4.1602-1.8672-4.1602-4.1602l-0.003906-8.2109c-0.54688 0.26953-1.168 0.41797-1.8164 0.41797h-2.3594c-0.99219 0-1.7969-0.80859-1.7969-1.7969v-14.605c0-4.1914 1.5977-8.1328 4.5117-11.156v-4.6797c0-0.64453 0.52344-1.1719 1.1719-1.1719 0.64453 0 1.1719 0.52344 1.1719 1.1719v5.1641c0 0.31641-0.12891 0.61719-0.35156 0.83594-2.6836 2.6211-4.1602 6.1172-4.1602 9.8359v14.062h1.8164c1.0039 0 1.8164-0.81641 1.8164-1.8164 0-0.64453 0.52344-1.1719 1.1719-1.1719 0.64453 0 1.1719 0.52344 1.1719 1.1719v11.953c0 1.0039 0.81641 1.8164 1.8164 1.8164 1.0039 0 1.8164-0.81641 1.8164-1.8164 0-0.64453 0.52344-1.1719 1.1719-1.1719 0.64453 0 1.1719 0.52344 1.1719 1.1719v2.9883c0 1.0039 0.81641 1.8164 1.8164 1.8164 1.0039 0 1.8164-0.81641 1.8164-1.8164v-3.1328c0-0.64453 0.52344-1.1719 1.1719-1.1719 0.64453 0 1.1719 0.52344 1.1719 1.1719 0 1.0039 0.81641 1.8164 1.8164 1.8164 1.0039 0 1.8164-0.81641 1.8164-1.8164v-6.4883c0-0.64453 0.52344-1.1719 1.1719-1.1719 0.64453 0 1.1719 0.52344 1.1719 1.1719 0 1.0039 0.81641 1.8164 1.8164 1.8164 1.0039 0 1.8164-0.81641 1.8164-1.8164v-17.566c0-3.7227-1.4766-7.2148-4.1602-9.8359-0.22656-0.21875-0.35156-0.52344-0.35156-0.83594v-5.1641c0-0.64453 0.52344-1.1719 1.1719-1.1719 0.64453 0 1.1719 0.52344 1.1719 1.1719v4.6797c2.9141 3.0234 4.5117 6.9648 4.5117 11.156v17.566c0 2.293-1.8672 4.1602-4.1602 4.1602-0.65234 0-1.2695-0.15234-1.8164-0.41797v2.7461c0 2.293-1.8672 4.1602-4.1602 4.1602-0.66797 0-1.2969-0.16016-1.8594-0.4375-0.28906 2.0117-2.0312 3.5664-4.1211 3.5664z"/>
 <path d="m59.02 60.879c-0.64453 0-1.1719-0.52344-1.1719-1.1719v-7.8711c0-0.64453 0.52344-1.1719 1.1719-1.1719 0.64453 0 1.1719 0.52344 1.1719 1.1719v7.8711c-0.003906 0.64844-0.52734 1.1719-1.1719 1.1719z"/>
 <path d="m53.039 67.25c-0.64453 0-1.1719-0.52344-1.1719-1.1719v-14.238c0-0.64453 0.52344-1.1719 1.1719-1.1719 0.64453 0 1.1719 0.52344 1.1719 1.1719v14.238c0 0.64844-0.52344 1.1719-1.1719 1.1719z"/>
 <path d="m47.066 67.516c-0.64453 0-1.1719-0.52344-1.1719-1.1719v-14.238c0-0.64453 0.52344-1.1719 1.1719-1.1719 0.64453 0 1.1719 0.52344 1.1719 1.1719v14.238c-0.003906 0.64453-0.52734 1.1719-1.1719 1.1719z"/>
 <path d="m41.086 55.559c-0.64453 0-1.1719-0.52344-1.1719-1.1719v-7.8711c0-0.64453 0.52344-1.1719 1.1719-1.1719 0.64453 0 1.1719 0.52344 1.1719 1.1719v7.8711c0 0.64844-0.52344 1.1719-1.1719 1.1719z"/>
 <path d="m73.363 76.371c-0.19922 0-0.40234-0.050782-0.58203-0.15625l-4.0547-2.3398c-4.0742 1.0117-8.2891 0.42578-11.918-1.668l-4.3516-2.5117c-0.55859-0.32422-0.75391-1.0391-0.42969-1.5977 0.32422-0.55859 1.0391-0.75391 1.5977-0.42969l4.3516 2.5117c3.2227 1.8594 6.9883 2.3281 10.598 1.3164 0.30469-0.085938 0.62891-0.042969 0.90234 0.11328l4.4727 2.582c0.55859 0.32422 0.75391 1.0391 0.42969 1.5977-0.21484 0.37109-0.60938 0.58203-1.0156 0.58203zm10.43-18.062c-0.19922 0-0.40234-0.050782-0.58203-0.15625l-4.4727-2.582c-0.27344-0.16016-0.47266-0.41797-0.54688-0.72266-0.92969-3.6328-3.2148-6.6602-6.4375-8.5234l-7.3789-4.2617c-0.55859-0.32422-0.75391-1.0391-0.42969-1.5977 0.32422-0.55859 1.0391-0.75391 1.5977-0.42969l7.3789 4.2617c3.6289 2.0938 6.2422 5.4531 7.4062 9.4844l4.0547 2.3398c0.55859 0.32422 0.75391 1.0391 0.42969 1.5977-0.22266 0.375-0.61719 0.58984-1.0195 0.58984z"/>
 <path d="m26.742 76.371c-0.40625 0-0.79688-0.21094-1.0156-0.58594-0.32422-0.55859-0.13281-1.2773 0.42969-1.5977l4.4727-2.582c0.27344-0.16016 0.59766-0.19922 0.90234-0.11328 3.6133 1.0117 7.375 0.54297 10.598-1.3164l4.3516-2.5117c0.55859-0.32422 1.2773-0.13281 1.5977 0.42969 0.32422 0.5625 0.13281 1.2773-0.42969 1.5977l-4.3516 2.5117c-3.6289 2.0938-7.8438 2.6797-11.918 1.668l-4.0547 2.3398c-0.18359 0.10937-0.38281 0.16016-0.58203 0.16016zm-10.43-18.062c-0.40625 0-0.79688-0.21094-1.0156-0.58594-0.32422-0.55859-0.13281-1.2773 0.42969-1.5977l4.0547-2.3398c1.1602-4.0352 3.7773-7.3906 7.4062-9.4844l7.3789-4.2617c0.55859-0.32422 1.2773-0.13281 1.5977 0.42969 0.32422 0.55859 0.13281 1.2773-0.42969 1.5977l-7.3789 4.2617c-3.2227 1.8594-5.5078 4.8867-6.4375 8.5234-0.078125 0.30469-0.27734 0.56641-0.54688 0.72266l-4.4727 2.582c-0.18359 0.10156-0.38672 0.15234-0.58594 0.15234z"/>
 <path d="m60.531 27.48h-20.957c-2.832 0-5.1367-2.3047-5.1367-5.1367v-5.4805c0-0.64453 0.52344-1.1719 1.1719-1.1719h28.883c0.64453 0 1.1719 0.52344 1.1719 1.1719v5.4805c0 2.832-2.3008 5.1367-5.1328 5.1367zm-23.75-9.4492v4.3086c0 1.5391 1.2539 2.793 2.793 2.793h20.953c1.5391 0 2.793-1.2539 2.793-2.793v-4.3086z"/>
 <path d="m79.512 84.609c-0.19922 0-0.40234-0.050781-0.58203-0.15625l-4.7461-2.7383c-2.4531-1.418-3.293-4.5625-1.8789-7.0156l10.477-18.145c0.68359-1.1836 1.7891-2.0312 3.1211-2.3867 1.3281-0.35547 2.7109-0.17578 3.8945 0.50781l4.7461 2.7383c0.55859 0.32422 0.75391 1.0391 0.42969 1.5977l-14.445 25.012c-0.21484 0.375-0.60938 0.58594-1.0156 0.58594zm-4.1562-4.9258 3.7305 2.1562 13.27-22.984-3.7305-2.1562c-0.64062-0.37109-1.3945-0.46875-2.1172-0.27344-0.72266 0.19141-1.3281 0.65625-1.6953 1.2969l-10.477 18.145c-0.77734 1.3359-0.31641 3.0469 1.0195 3.8164z"/>
 <path d="m20.59 84.609c-0.10156 0-0.20312-0.011719-0.30469-0.039063-0.30078-0.082031-0.55469-0.27734-0.71094-0.54297l-14.438-25.016c-0.15625-0.26953-0.19531-0.58984-0.11719-0.88672 0.082031-0.30078 0.27734-0.55469 0.54297-0.71094l4.7461-2.7383c1.1836-0.68359 2.5664-0.86328 3.8945-0.50781s2.4336 1.2031 3.1211 2.3867l10.477 18.145c0.68359 1.1836 0.86328 2.5664 0.50781 3.8945-0.35547 1.3281-1.2031 2.4336-2.3867 3.1211l-4.7461 2.7383c-0.17969 0.10156-0.37891 0.15625-0.58594 0.15625zm-12.84-25.754 13.27 22.984 3.7305-2.1562c0.64062-0.37109 1.1055-0.97266 1.2969-1.6953 0.19141-0.72266 0.09375-1.4766-0.27344-2.1211l-10.477-18.145c-0.37109-0.64062-0.97266-1.1055-1.6953-1.2969-0.72266-0.19531-1.4766-0.09375-2.1172 0.27344z"/>
</svg>
