<svg xmlns="http://www.w3.org/2000/svg" version="1.1" viewBox="-5.0 -10.0 110.0 135.0">
 <path d="m5.793 42.09c1.2891 0 2.4961-0.50781 3.3828-1.418l6.2227-6.2227-8.3086 31.059c-0.71875 2.75 0.92188 5.5664 3.6328 6.2773 0.44922 0.125 0.90234 0.18359 1.3477 0.18359 2.2578 0 4.3438-1.5156 4.9766-3.8203l6.8477-25.562h6.8008l2.25 8.3516c0.60547 2.2969 2.6875 3.8164 4.9727 3.8164 0.4375 0 0.88281-0.054687 1.3281-0.17188 2.75-0.75781 4.3789-3.5938 3.6328-6.3125l-2.9805-11.207c-0.77734-2.8477-3.2852-4.7617-6.2383-4.7617h-1.0234l2.5898-9.7227 11.797-1.793c1.8125-0.046875 3.4492-1.1055 4.2148-2.7344l4.8633-8.4414c0.64063-1.1016 0.8125-2.3867 0.48438-3.625-0.32813-1.2344-1.1172-2.2656-2.2266-2.9102-2.2812-1.3047-5.2227-0.51172-6.5508 1.7734l-3.6953 6.4453-8.6367 0.84766c0.035157-0.27734 0.054688-0.5625 0.054688-0.85156v-3.0898c0-3.6875-2.9883-6.6875-6.6602-6.6875-3.6875 0-6.6875 3-6.6875 6.6875v3.0898c0 0.87891 0.19141 1.7344 0.52734 2.5352-0.35156 0.20703-0.68359 0.44141-0.96875 0.73828l-19.324 19.328c-0.92188 0.89844-1.4297 2.1055-1.4297 3.3945 0 1.2891 0.50781 2.4961 1.4062 3.3711 0.90234 0.92188 2.1094 1.4336 3.3984 1.4336zm19.387-33.891c0-2.0312 1.6523-3.6875 3.6875-3.6875 2.0195 0 3.6602 1.6523 3.6602 3.6875v3.0898c0 0.40625-0.066406 0.79688-0.17969 1.1562l-6.6719 0.65625c-0.32031-0.55078-0.49609-1.1758-0.49609-1.8125zm-20.652 27.82 19.355-19.355c0.41797-0.4375 0.95703-0.5 1.2383-0.5 0.050781 0 0.097656-0.003906 0.14453-0.007812l19.898-1.9531c0.48438-0.046875 0.91406-0.32422 1.1562-0.74609l4.0781-7.1055c0.5-0.85937 1.6094-1.1602 2.457-0.67578 0.41016 0.23828 0.70312 0.62109 0.82422 1.0859 0.12109 0.46094 0.058593 0.9375-0.17969 1.3477l-4.8984 8.5c-0.023437 0.042969-0.046874 0.089844-0.070312 0.13281-0.28516 0.63281-0.92578 1.043-1.6367 1.043-0.074219 0-0.15234 0.007813-0.22656 0.015625l-12.84 1.9492c-0.007813 0-0.019531 0.003906-0.027344 0.003906v0.003906c-0.003906 0-0.003906 0.003907-0.007812 0.003907-0.097657 0.015625-0.1875 0.039062-0.27734 0.070312-0.023437 0.007813-0.042969 0.019531-0.066406 0.03125-0.066407 0.027344-0.13281 0.058594-0.19141 0.09375-0.03125 0.019531-0.054687 0.039063-0.085937 0.0625-0.050781 0.035157-0.10156 0.070313-0.14844 0.10938-0.027344 0.023438-0.050782 0.054688-0.078126 0.082032-0.039062 0.042968-0.082031 0.082031-0.11719 0.13281-0.027344 0.035156-0.046875 0.074219-0.070313 0.10938-0.027343 0.046875-0.058593 0.085937-0.078124 0.13672-0.027344 0.058594-0.046876 0.11719-0.066407 0.17969-0.011719 0.03125-0.023437 0.058594-0.035156 0.089844l-0.003906 0.015625-3.3398 12.543c-0.003906 0.015625-0.003906 0.027343-0.007813 0.039062-0.011718 0.046875-0.019531 0.097657-0.023437 0.14844-0.007813 0.054687-0.015625 0.10547-0.015625 0.15625 0 0.015625-0.003906 0.023437-0.003906 0.039062 0 0.03125 0.007812 0.0625 0.007812 0.09375 0.003906 0.054688 0.007813 0.10938 0.015625 0.16406 0.007813 0.046875 0.019531 0.089844 0.03125 0.13672 0.011719 0.046876 0.027344 0.09375 0.042969 0.14063 0.019531 0.046874 0.039062 0.089843 0.0625 0.13281 0.019531 0.042969 0.042969 0.085938 0.066406 0.12109 0.027344 0.042968 0.054688 0.078125 0.085938 0.11719 0.027344 0.039063 0.058594 0.074219 0.09375 0.10938 0.03125 0.035156 0.066406 0.066406 0.10156 0.097656s0.074219 0.0625 0.11328 0.09375c0.039062 0.027344 0.082031 0.054688 0.125 0.078126 0.039062 0.023437 0.078124 0.046874 0.12109 0.066406 0.050781 0.023437 0.10156 0.039062 0.15625 0.058594 0.027344 0.011718 0.054688 0.023437 0.085938 0.03125 0.011719 0.003906 0.019531 0.003906 0.03125 0.003906 0.11328 0.027344 0.23047 0.046875 0.35547 0.046875h2.9766c1.582 0 2.9258 1.0234 3.3398 2.543l2.9805 11.211c0.31641 1.1523-0.35547 2.3086-1.5156 2.6289-1.1211 0.30078-2.3203-0.39453-2.6172-1.5195l-2.543-9.4297c-0.027343-0.11719-0.070312-0.22656-0.125-0.32812-0.10547-0.20313-0.25-0.375-0.42578-0.50781-0.17188-0.12891-0.37109-0.22266-0.58594-0.26953-0.11328-0.023438-0.23437-0.039063-0.35547-0.035156h-9.0664c-0.039063 0-0.074219 0.007812-0.10938 0.011718-0.046874 0.003906-0.09375 0.007813-0.14062 0.015625-0.054688 0.007813-0.10938 0.023438-0.16016 0.039063-0.039062 0.011718-0.078125 0.019531-0.11719 0.035156-0.054688 0.019531-0.10547 0.046875-0.15234 0.070312-0.035156 0.019532-0.070312 0.035157-0.10547 0.058594-0.046875 0.027344-0.089843 0.058594-0.12891 0.09375-0.035156 0.027344-0.070313 0.054688-0.10156 0.085938-0.035156 0.035156-0.070312 0.070312-0.10156 0.10938-0.03125 0.035156-0.0625 0.070312-0.089844 0.10547-0.03125 0.039062-0.054687 0.085937-0.082031 0.12891-0.023437 0.039062-0.046875 0.078125-0.0625 0.11719-0.023437 0.050781-0.042969 0.10547-0.058594 0.16016-0.007812 0.027343-0.023437 0.054687-0.03125 0.085937l-7.1406 26.664c-0.32422 1.1758-1.4805 1.8516-2.6523 1.5273-1.1484-0.30078-1.8125-1.4531-1.5117-2.6133l9.75-36.453c0.03125-0.12109 0.042968-0.24219 0.046875-0.36328 0-0.019532-0.003907-0.039063-0.003907-0.0625-0.003906-0.17578-0.035156-0.34766-0.097656-0.50391-0.007812-0.019532-0.015625-0.035157-0.023437-0.054688-0.070313-0.16406-0.17188-0.31641-0.29688-0.44531-0.007813-0.007813-0.007813-0.015626-0.015625-0.019532-0.007813-0.007812-0.019531-0.011718-0.027344-0.019531-0.125-0.12109-0.27344-0.22266-0.44141-0.29297-0.023438-0.011718-0.046875-0.019531-0.070313-0.027344-0.046875-0.015624-0.085937-0.039062-0.13672-0.050781-0.12109-0.03125-0.23828-0.042969-0.35938-0.046875-0.023437 0-0.046874 0.003906-0.070312 0.003906-0.17188 0.003907-0.33594 0.035157-0.48828 0.09375-0.023438 0.011719-0.046875 0.019532-0.070313 0.03125-0.16016 0.070313-0.30469 0.16406-0.43359 0.28516-0.007812 0.007812-0.019531 0.011719-0.027343 0.019531l-10.188 10.188c-0.66406 0.67969-1.8164 0.70312-2.5273-0.023438-0.33984-0.33594-0.52734-0.77734-0.52734-1.2539 0-0.47656 0.1875-0.92188 0.53906-1.2656zm16.457 48.777c-0.82812 0-1.5 0.67188-1.5 1.5v11.734c0 0.82812 0.67188 1.5 1.5 1.5h13.125c0.82812 0 1.5-0.67188 1.5-1.5v-11.734c0-0.82812-0.67188-1.5-1.5-1.5zm11.625 11.734h-10.125v-8.7344h10.125zm9.4961-23.469c-0.82812 0-1.5 0.67188-1.5 1.5v23.473c0 0.82812 0.67188 1.5 1.5 1.5h13.152c0.82813 0 1.5-0.67188 1.5-1.5v-23.473c0-0.82812-0.67187-1.5-1.5-1.5zm11.652 23.469h-10.152v-20.469h10.152zm9.4648-39.176c-0.82812 0-1.5 0.67188-1.5 1.5v39.176c0 0.82812 0.67188 1.5 1.5 1.5h13.152c0.82812 0 1.5-0.67188 1.5-1.5v-39.176c0-0.82812-0.67188-1.5-1.5-1.5zm11.652 39.176h-10.152v-36.176h10.152zm22.617-59.047h-13.125c-0.82813 0-1.5 0.67188-1.5 1.5v59.047c0 0.82812 0.67187 1.5 1.5 1.5h13.125c0.82812 0 1.5-0.67188 1.5-1.5v-59.047c0-0.82812-0.67188-1.5-1.5-1.5zm-1.5 59.047h-10.125v-56.047h10.125zm-18.922-59.047 8.7695-21.242-9.8945 3.8164c-0.77734 0.30078-1.6406-0.085938-1.9375-0.85938-0.29687-0.77344 0.085938-1.6406 0.85938-1.9375l13.152-5.0742c0.015625-0.003906 0.027344-0.011719 0.042969-0.015625h0.003906c0.17188-0.0625 0.34375-0.089844 0.52344-0.085937 0.15234 0.003906 0.3125 0.03125 0.46484 0.082031 0.039062 0.015625 0.078124 0.027343 0.11719 0.046875 0.17578 0.078125 0.32812 0.1875 0.45703 0.31641 0.14062 0.14453 0.25391 0.31641 0.33203 0.51562l5.0781 13.152c0.29688 0.77344-0.085937 1.6406-0.85937 1.9375-0.77344 0.30078-1.6406-0.085938-1.9375-0.85938l-3.7227-9.6484-9.0547 21.926c-0.23047 0.5625-0.77734 0.92969-1.3867 0.92969l-19.891 0.003906-7.2266 18.906c-0.22266 0.58203-0.77734 0.96484-1.4023 0.96484h-19.887l-7.2266 18.934c-0.22266 0.58203-0.77734 0.96484-1.4023 0.96484h-18.539c-0.82812 0-1.5-0.67187-1.5-1.5 0-0.82812 0.67188-1.5 1.5-1.5h17.508l7.2148-18.898c0.03125-0.09375 0.074219-0.17969 0.12109-0.26172 0.11328-0.19141 0.26562-0.35156 0.4375-0.47266 0.17578-0.12109 0.37891-0.20703 0.59766-0.24219 0.09375-0.015624 0.19141-0.019531 0.28906-0.019531h19.852l7.2148-18.875c0.03125-0.09375 0.074219-0.17969 0.12109-0.26172 0.10938-0.1875 0.26172-0.34766 0.43359-0.46484 0.17969-0.125 0.38672-0.21484 0.61328-0.25 0.09375-0.015625 0.18359-0.019531 0.28125-0.019531l19.883-0.003907z"/>
<text x="0.0" y="117.5" font-size="5.0" font-weight="bold" font-family="Arbeit Regular, Helvetica, Arial-Unicode, Arial, Sans-serif" fill="#000000">Created by mimumi</text><text x="0.0" y="122.5" font-size="5.0" font-weight="bold" font-family="Arbeit Regular, Helvetica, Arial-Unicode, Arial, Sans-serif" fill="#000000">from Noun Project</text></svg>