<svg xmlns="http://www.w3.org/2000/svg" version="1.1" viewBox="-5.0 -10.0 110.0 135.0">
 <path d="m86.02 62.988c-1.8398-2.2188-5.0898-2.7617-7.5508-1.25l-6.6016 4.0391 0.003906-57.387c0-0.73047-0.58984-1.3086-1.3086-1.3086l-43.824-0.003906c-0.28125 0-0.55078 0.10938-0.76172 0.30078-0.14062 0.12891-8.7305 8.1602-8.7305 8.1602-0.23047 0.21094-0.35156 0.51172-0.35156 0.80859v49.352l-2.8711 1.6602c-1.3398 0.78125-1.8086 2.5-1.0312 3.8398l11.73 20.32c0.51953 0.89844 1.4688 1.4102 2.4414 1.4102 0.48047 0 0.96094-0.12109 1.3984-0.37891l4.3711-2.5195c0.64844-0.37891 1.1211-0.98047 1.3086-1.7109 0.19141-0.73047 0.089843-1.4883-0.28125-2.1406l-1.3398-2.3203 1.7188-0.87109c0.62109-0.30859 1.3281-0.37891 2-0.17969l15.289 4.5117c0.96875 0.28906 1.9805 0.42969 2.9805 0.42969 1.8789 0 3.75-0.5 5.3984-1.4688l24.469-14.512c1.4688-0.87109 2.4883-2.3516 2.7812-4.0312 0.28906-1.6914-0.17187-3.4219-1.2617-4.7305zm-16.379 4.1523-7.2695 4.4414c-0.94141 0.57812-2 0.89062-3.0781 0.98828 0.37891-0.44141 0.69141-0.94922 0.89062-1.5312 0.44141-1.2617 0.35938-2.6094-0.23047-3.8008-0.58984-1.1992-1.6016-2.0898-2.8594-2.5117l-12.93-4.3203c-2.9414-0.98828-6.1719-0.66016-8.8594 0.89844l-11.75 6.8086-1.3008-2.25c-0.64062-1.1094-1.9297-1.6016-3.1094-1.3086l-0.003906-46.594h7.25c0.62109 0 1.1094-0.5 1.1094-1.1094v-7.5391h42.141zm-49.332-51.41c1.3789-1.2891 3.4102-3.1797 4.9609-4.6406v4.6406zm11.801 72.008c-0.039063 0.14844-0.14062 0.28125-0.26953 0.35938l-4.3711 2.5195c-0.28125 0.16016-0.64062 0.070312-0.80078-0.21094l-11.73-20.32c-0.16016-0.28125-0.070312-0.64063 0.21094-0.80078l4.3711-2.5195c0.089844-0.050781 0.19141-0.078125 0.28906-0.078125 0.19922 0 0.39844 0.10156 0.51172 0.28906l11.73 20.32c0.078125 0.14062 0.10156 0.28906 0.058594 0.44141zm52.98-20.387c-0.17969 1.0508-0.80859 1.9609-1.7188 2.5l-24.469 14.512c-1.9883 1.1797-4.3906 1.4805-6.6094 0.82812l-15.289-4.5117c-1.2109-0.35938-2.5-0.23828-3.6289 0.32812l-1.8398 0.92188-6.8594-11.891 11.75-6.8086c2.1289-1.2383 4.6992-1.5 7.0391-0.71094l12.93 4.3203c0.69141 0.23047 1.25 0.71875 1.5703 1.3711 0.32031 0.66016 0.37109 1.3906 0.12109 2.0781-0.44922 1.2891-1.8203 2.0312-3.1406 1.7305l-0.14844-0.03125-8.9805-2.4219c-0.58984-0.16016-1.2109 0.19141-1.3711 0.78906-0.16016 0.58984 0.19141 1.2109 0.78906 1.3711 0 0 9.6094 2.5508 9.6602 2.5586l2 0.39062c2.2891 0.44141 4.6484 0.019531 6.6484-1.1992l16.102-9.8398c1.5195-0.92969 3.5312-0.60156 4.6719 0.78125 0.67969 0.82031 0.96094 1.8789 0.78125 2.9297z"/>
 <path d="m20.949 71.109c0 2.4414-3.6602 2.4414-3.6602 0 0-2.4375 3.6602-2.4375 3.6602 0z"/>
 <path d="m28.398 34.84c-0.51172 0.78906-0.67969 1.7812-0.44922 2.6914 0.23047 0.92188 0.83984 1.7109 1.6719 2.1602l2.4102 1.3281c0.35938 0.19922 0.58984 0.57031 0.62109 0.98047l0.10938 2.0508c-1.4688 2.7812-2.9297 5.5586-4.4102 8.3203-0.19141 0.35938-0.17187 0.80859 0.058594 1.1484 0.23047 0.33984 0.62891 0.53125 1.0391 0.48047l4.9688-0.53906c0.82031 1.4297 1.6406 2.8516 2.4609 4.2695 0.19922 0.35156 0.57031 0.55859 0.96875 0.55859h0.03125c0.41016-0.011718 0.78125-0.25 0.96875-0.60937 1.2109-2.3984 2.4219-4.8086 3.6289-7.2109 0.57813 0.55859 1.3281 0.91016 2.1406 0.96875h0.23047c0.87109 0 1.7109-0.32812 2.3516-0.92969l1.4102-1.3203 4.2695 8.4883c0.17969 0.37109 0.55859 0.60156 0.96875 0.60938h0.03125c0.39844 0 0.76953-0.21094 0.96875-0.55859l2.4492-4.2695 4.9805 0.53906c0.41016 0.039062 0.80859-0.14062 1.0391-0.48047 0.23047-0.33984 0.25-0.78125 0.058594-1.1484l-5.0391-9.4883s0.10156-0.058594 0.14844-0.078125l2.5703-0.98828c0.87891-0.33984 1.5898-1.0391 1.9492-1.9219 0.35938-0.87891 0.32031-1.8711-0.078125-2.7305l-1.1719-2.4883c-0.17969-0.37891-0.14844-0.80859 0.078125-1.1602l1.4883-2.3086c0.51172-0.78906 0.67969-1.7812 0.44922-2.6914-0.23047-0.92188-0.83984-1.7109-1.6719-2.1602l-2.4102-1.3281c-0.35938-0.19922-0.58984-0.57031-0.62109-0.98047l-0.14844-2.75c-0.050781-0.94922-0.5-1.8398-1.2188-2.4414-0.73047-0.60937-1.6914-0.89062-2.6211-0.76953l-2.7305 0.35156c-0.41016 0.050781-0.82031-0.10938-1.0781-0.42969l-1.7305-2.1289c-0.60156-0.73828-1.4805-1.1992-2.4297-1.2617-0.94141-0.070312-1.8789 0.26953-2.5703 0.92188l-2 1.8789c-0.30078 0.28906-0.73047 0.39063-1.1289 0.28125l-2.6484-0.71094c-0.92188-0.25-1.8984-0.10156-2.6992 0.41016s-1.3594 1.3281-1.5391 2.2617l-0.51172 2.6992c-0.078125 0.41016-0.35938 0.73828-0.73828 0.89062l-2.5703 0.98828c-0.87891 0.33984-1.5898 1.0391-1.9492 1.9219-0.35156 0.87891-0.32031 1.8711 0.078125 2.7305l1.1719 2.4883c0.17969 0.37891 0.14844 0.80859-0.078125 1.1602l-1.4883 2.3086zm9.3711 19.988c-0.58984-1.0391-1.1914-2.0703-1.7891-3.1094-0.21875-0.37891-0.64844-0.60156-1.0781-0.55078l-3.6016 0.39062c0.82031-1.5391 1.6406-3.0898 2.4609-4.6406 0.089843 0.089843 0.16016 0.19141 0.26172 0.26953 0.73047 0.60938 1.6797 0.89062 2.6211 0.76953l2.7305-0.35156c0.41016-0.050781 0.80859 0.10938 1.0781 0.42969l0.46094 0.57031c-1.0508 2.0703-2.0898 4.1406-3.1289 6.2188zm19-3.6562c-0.44141-0.050781-0.87109 0.17188-1.0898 0.55078l-1.7812 3.1094-3.2109-6.3711 2.25 0.60156c0.92188 0.25 1.8984 0.10156 2.6992-0.41016 0.80078-0.5 1.3594-1.3281 1.5391-2.2617l0.12109-0.62109 3.0703 5.7812-3.6094-0.39062zm-26.5-15.121 1.4883-2.3086c0.64844-1 0.73047-2.2383 0.21875-3.3203l-1.1719-2.4883c-0.14063-0.30078-0.14844-0.64062-0.03125-0.94922 0.12109-0.30859 0.37109-0.55078 0.67969-0.67188l2.5703-0.98828c1.1094-0.42969 1.9102-1.3789 2.1289-2.5508l0.51172-2.6992c0.058594-0.32812 0.25-0.60938 0.53906-0.78906 0.28125-0.17969 0.62109-0.23047 0.94141-0.14062l2.6484 0.71094c1.1484 0.30859 2.3594 0 3.2305-0.80859l2-1.8789c0.23828-0.23047 0.55859-0.33984 0.89844-0.32031 0.32812 0.019532 0.62891 0.17969 0.85156 0.44141l1.7305 2.1289c0.75 0.92969 1.9102 1.3906 3.0898 1.2383l2.7305-0.35156c0.32812-0.039063 0.66016 0.050781 0.91016 0.26953 0.26172 0.21094 0.41016 0.51953 0.42969 0.85156l0.14844 2.75c0.058594 1.1914 0.71875 2.2383 1.7695 2.8086l2.4102 1.3203c0.28906 0.16016 0.5 0.42969 0.57812 0.75 0.078126 0.32031 0.03125 0.66016-0.16016 0.94141l-1.4883 2.3086c-0.64844 1-0.73047 2.2383-0.21875 3.3203l1.1719 2.4883c0.14062 0.30078 0.14844 0.64062 0.03125 0.94922-0.12109 0.30859-0.37109 0.55078-0.67969 0.67188l-2.5703 0.98828c-1.1094 0.42969-1.9102 1.3789-2.1289 2.5508l-0.51172 2.6992c-0.058594 0.32812-0.25 0.60938-0.53906 0.78906-0.28125 0.17969-0.62109 0.23047-0.94141 0.14062l-2.6484-0.71094c-0.82031-0.21875-1.6602-0.12109-2.3906 0.25-0.011719 0-0.050782 0.019532-0.050782 0.019532-0.28125 0.14844-0.55078 0.32031-0.78906 0.55078l-2 1.8789c-0.23828 0.23047-0.55859 0.33984-0.89844 0.32031-0.32812-0.019532-0.64062-0.17969-0.85156-0.44141l-1.7305-2.1289c-0.66016-0.80859-1.6289-1.2695-2.6484-1.2695-0.14844 0-0.28906 0-0.44141 0.03125l-2.7305 0.35156c-0.32812 0.039063-0.66016-0.050781-0.91016-0.26953-0.26172-0.21094-0.41016-0.51953-0.42969-0.85156l-0.14844-2.75c-0.058594-1.1914-0.73047-2.2383-1.7695-2.8086l-2.4102-1.3281c-0.28906-0.16016-0.5-0.42969-0.57812-0.75-0.078125-0.32031-0.03125-0.66016 0.16016-0.94141z"/>
 <path d="m45.84 44.121c1.9883 0 3.9414-0.53125 5.6289-1.5312 0.53125-0.30859 0.71094-1 0.39062-1.5312-0.30859-0.53125-1-0.71094-1.5312-0.39062-1.3594 0.80078-2.9102 1.2188-4.5 1.2188-4.8789 0-8.8516-3.9688-8.8516-8.8594 0-1.3906 0.32031-2.7109 0.92188-3.9219 0.19141 0.16016 0.42969 0.26953 0.71094 0.26953 0.62109 0 1.1094-0.5 1.1094-1.1094v-2.1016c0-0.35937-0.17969-0.69922-0.46875-0.91016-0.30078-0.21094-0.67969-0.26172-1.0195-0.14062l-1.9609 0.69922c-0.57812 0.21094-0.87891 0.83984-0.67188 1.4219 0.089844 0.25 0.26953 0.42969 0.48047 0.55859-0.85156 1.6016-1.3203 3.3984-1.3203 5.2188 0 6.1094 4.9688 11.09 11.078 11.09z"/>
 <path d="m41.32 25.422c1.3594-0.80859 2.9219-1.2383 4.5195-1.2383 2.3086 0 4.4883 0.87891 6.1484 2.4805 1.75 1.6797 2.7109 3.9492 2.7109 6.3711 0 1.3711-0.32812 2.7188-0.92969 3.9414-0.19141-0.16016-0.42969-0.26172-0.69141-0.26172-0.62109 0-1.1094 0.5-1.1094 1.1094v2.0703c0 0.35938 0.17969 0.71094 0.48047 0.91016 0.19141 0.12891 0.41016 0.19922 0.64062 0.19922 0.12891 0 0.26172-0.019531 0.39062-0.070312l1.8516-0.67969c0.57812-0.21094 0.87109-0.85156 0.66016-1.4297-0.078126-0.21094-0.23047-0.37109-0.39844-0.48828 0.87891-1.6211 1.3594-3.4492 1.3594-5.3086 0-3.0117-1.1797-5.8086-3.3281-7.9102l-0.089844-0.089844c-2.0703-1.9805-4.7891-3.0781-7.6719-3.0781-2 0-3.9609 0.53906-5.6602 1.5586-0.53125 0.32031-0.69922 1-0.39062 1.5312s1 0.69922 1.5312 0.39063z"/>
 <path d="m49.781 29.211-5.4492 5.2812-2.4102-2.4102c-0.44141-0.44141-1.1406-0.44141-1.5781 0-0.44141 0.44141-0.44141 1.1406 0 1.5781l3.1914 3.1914c0.21875 0.21875 0.5 0.32813 0.78906 0.32813 0.28906 0 0.55859-0.10156 0.78125-0.30859l6.2305-6.0391c0.44141-0.42969 0.44922-1.1289 0.019531-1.5781-0.42969-0.44141-1.1289-0.44922-1.5781-0.019531z"/>
<text x="0.0" y="117.5" font-size="5.0" font-weight="bold" font-family="Arbeit Regular, Helvetica, Arial-Unicode, Arial, Sans-serif" fill="#000000">Created by Garoks</text><text x="0.0" y="122.5" font-size="5.0" font-weight="bold" font-family="Arbeit Regular, Helvetica, Arial-Unicode, Arial, Sans-serif" fill="#000000">from Noun Project</text></svg>