<svg xmlns="http://www.w3.org/2000/svg" data-name="Layer 1" viewBox="0 0 100 125" x="0px" y="0px"><defs><style>
      .cls-1 {
        fill-rule: evenodd;
      }
    </style></defs><path class="cls-1" d="m19.2338,68.4602l13.3089-8.6717c.1924-.1357.4301-.2102.6834-.1963l14.5633.8127c.1586.0051.3187.0453.4686.1242l4.7169,2.4826,13.8978,1.1424c.2939.0231.5515.1614.7314.3672,1.6076,1.6206,2.3903,2.933,2.6021,4.0453l14.744-8.6891c1.1869-.9655,3.4005-1.6467,5.3265-1.5471,4.7737.2463,4.9889,4.1992,3.1251,7.8418-.3497.681-21.677,18.3355-24.1975,20.4546-.2144.1913-.5042.2971-.8131.2704l-31.1514-2.7827-7.5639,2.4317c.4116.7131,1.1578,1.7275.1015,2.3393l-10.3419,5.9684c-.5164.2966-1.1758.1194-1.474-.3955l-12.3069-21.3117c-.2997-.5174-.1231-1.1804.3944-1.4802l10.3419-5.9683c.5164-.2967,1.1758-.1195,1.474.3954l1.3688,2.3665h0Zm1.0842,1.8776l8.2507,14.2906,8.2152-2.6412c.1603-.0515.3241-.0635.4805-.0416l30.8694,2.7574,23.4382-19.7056c1.0394-2.1086,1.5514-4.3519-1.4055-4.5038-2.0184-.1045-2.5115.4018-4.0846,1.2286l-16.9644,9.9937c-.7779.8018-1.686,1.3879-2.598,2.0156-.204.1534-.4626.2362-.7368.2146l-14.2639-1.1726c-1.4314-.1122-1.1339-2.2652.1697-2.163l13.8875,1.1415c.612-.4005,1.3323-.8849,1.8472-1.3991.8187-.8176.9311-1.9128-1.1251-4.069l-13.7135-1.1273c-.1729-.0135-.3332-.0671-.4726-.1507l-4.6547-2.4499-13.9978-.781-13.1413,8.5628h0Zm7.4382,17.2159l-11.2241-19.4404-8.4617,4.8851,11.2241,19.4404,8.4617-4.8851h0Zm-14.0181-12.3471l6.4758,11.2164c.7073,1.2311,2.5821.1541,1.8745-1.0773l-6.4758-11.2164c-.7073-1.2311-2.5821-.1541-1.8745,1.0773h0ZM50.0243,5.0024c2.0212,0,3.1097,1.9628,4.3247,2.1832,1.1948.2165,2.8699-1.2419,4.7004-.5603,1.8254.6795,2.1388,2.8819,3.1258,3.4599.9798.5739,3.0499-.2326,4.5171,1.005,1.4626,1.2335,1.0191,3.4086,1.7439,4.2687.7271.8631,2.9447.7902,3.9205,2.4564.9766,1.6667-.171,3.5669.2349,4.6566.411,1.1047,2.5271,1.8012,2.8817,3.755.3527,1.945-1.3714,3.3438-1.3714,4.6449s1.724,2.6994,1.3714,4.6447c-.3546,1.9536-2.4701,2.6501-2.8817,3.7554-.4059,1.0895.7413,2.9892-.2349,4.6564-.9757,1.6663-3.1916,1.5924-3.9207,2.4564-.7249.8601-.2811,3.0352-1.7439,4.2687-1.4678,1.2375-3.5373.4313-4.5171,1.005-.987.578-1.3006,2.7804-3.1258,3.4597-1.8303.6816-3.5049-.777-4.7001-.5603-1.215.2204-2.3035,2.1832-4.3247,2.1832s-3.1097-1.9626-4.3246-2.1832c-1.1952-.2165-2.8697,1.2418-4.7007.5603-1.8254-.6795-2.1387-2.8819-3.1258-3.4599-.9796-.5737-3.0494.2324-4.517-1.005-1.4628-1.2335-1.0192-3.4086-1.7439-4.2687-.7284-.8638-2.9445-.79-3.9205-2.4564-.9764-1.6667.1708-3.5665-.2349-4.6563-.4106-1.1044-2.5269-1.8017-2.8815-3.7555-.3527-1.9447,1.3711-3.3436,1.3711-4.6444,0-1.3017-1.7238-2.6992-1.3711-4.6449.3545-1.9538,2.4705-2.6506,2.8815-3.7555.4059-1.0911-.7415-2.9896.2351-4.6563.9762-1.6661,3.1933-1.5933,3.9205-2.4564.7246-.8599.281-3.0352,1.7439-4.2687,1.4675-1.2374,3.5374-.4313,4.517-1.005.9871-.5782,1.3004-2.7804,3.1258-3.4597,1.831-.6817,3.5054.7767,4.7007.5603,1.2145-.2204,2.3033-2.1832,4.3244-2.1832h0Zm0,2.1716c-.8612,0-2.4352,1.867-3.9427,2.1409-1.4782.2682-3.6325-.9208-4.3274-.662-.7019.2613-1.5,2.5448-2.7863,3.2985-1.2834.7517-3.6602.3281-4.2118.7929-.557.4696-.5307,2.877-1.4892,4.0139-.9567,1.1346-3.341,1.5238-3.7084,2.1511-.3662.6248.4463,2.9197-.074,4.3169-.5243,1.4077-2.6403,2.6139-2.7797,3.3823-.1409.7761,1.4134,2.7393,1.4134,4.2631s-1.5543,3.4867-1.4134,4.2627c.1396.7682,2.2558,1.9746,2.7797,3.3823.5201,1.397-.2926,3.6921.0737,4.3169.3674.6274,2.7517,1.0166,3.7084,2.1511.958,1.1366.9324,3.5445,1.4892,4.0139.5517.4649,2.9285.0415,4.2118.7929,1.2865.7537,2.0842,3.0373,2.7863,3.2987.6949.2589,2.8492-.9302,4.3275-.662,1.5071.2739,3.0821,2.1409,3.9429,2.1409s2.4358-1.867,3.9429-2.1409c1.4784-.2682,3.6328.9204,4.327.662.7021-.2612,1.4996-2.5448,2.7863-3.2985,1.2833-.7516,3.6601-.3281,4.2118-.793.5568-.4695.5307-2.8767,1.4892-4.0138.9566-1.1341,3.3414-1.524,3.7087-2.1511.3661-.6259-.4465-2.9197.0737-4.317.5241-1.4075,2.6406-2.6143,2.7799-3.3822.1409-.7763-1.4137-2.7391-1.4137-4.2629s1.5545-3.4871,1.4137-4.2631c-.1393-.768-2.2556-1.9739-2.7799-3.3819-.5203-1.397.2926-3.6922-.0737-4.3172-.3672-.6274-2.7522-1.0166-3.7085-2.1511-.9582-1.1369-.9323-3.5445-1.4892-4.0139-.551-.4646-2.9287-.0415-4.2118-.7929-1.2865-.7537-2.0845-3.0375-2.7864-3.2987-.6946-.2589-2.8488.9304-4.3272.662-1.5071-.2739-3.0822-2.1409-3.9429-2.1409h0Zm.0002,4.9644c-10.3458,0-18.7333,8.3875-18.7333,18.7333s8.3875,18.7331,18.7333,18.7331,18.7331-8.3873,18.7331-18.7331-8.3871-18.7333-18.7331-18.7333h0Zm0,2.1716c-9.1465,0-16.5617,7.4152-16.5617,16.5617s7.4152,16.5615,16.5617,16.5615,16.5615-7.4148,16.5615-16.5615-7.4148-16.5617-16.5615-16.5617h0Zm-10.3612,16.5418l6.9206,6.9204c.4238.4238,1.1117.4238,1.5355,0l12.2656-12.2657c1.0097-1.0097-.5258-2.5453-1.5355-1.5355l-11.4979,11.4979-6.1528-6.1526c-1.0097-1.0097-2.5453.5258-1.5355,1.5355Z"/><text x="0" y="115" fill="#000000" font-size="5px" font-weight="bold" font-family="'Helvetica Neue', Helvetica, Arial-Unicode, Arial, Sans-serif">Created by San D</text><text x="0" y="120" fill="#000000" font-size="5px" font-weight="bold" font-family="'Helvetica Neue', Helvetica, Arial-Unicode, Arial, Sans-serif">from the Noun Project</text></svg>