<svg xmlns="http://www.w3.org/2000/svg" version="1.1" viewBox="-5.0 -10.0 110.0 135.0">
 <path d="m69.512 8.375c0.73438-0.21875 1.5117 0.4375 1.2539 1.3008l-1.6523 6.2617c-0.14062 0.54297-0.69531 0.86328-1.2383 0.72266s-0.86328-0.69531-0.72266-1.2383l0.71094-2.6953-21.293 21.293c-0.34766 0.34766-0.89062 0.39062-1.2852 0.125l-8.7617-5.0586-17.852 17.848c-0.39844 0.39844-1.0391 0.39844-1.4375 0-0.39844-0.39844-0.39844-1.0391 0-1.4375l18.398-18.398c0.31641-0.31641 0.82031-0.39453 1.2266-0.16016l8.8203 5.0938 20.699-20.699-2.6328 0.71484c-0.54297 0.14844-1.0977-0.17188-1.2461-0.71484s0.17188-1.1016 0.71484-1.2461zm-5.2578 69.992c-2.418-2.6719-2.3555-6.75 0.050782-9.3711 2.6328-2.8867 7.2305-3.0156 10.035-0.19922 2.7812 2.7852 2.6992 7.3281-0.19922 10.016v0.003906c-2.8516 2.6445-7.332 2.3945-9.8477-0.39844-0.011719-0.019531-0.023438-0.035157-0.039063-0.050781zm0.24219-4.6328c0 4.2422 5.1172 6.5117 8.2656 3.5938 3.3672-3.2148 0.98047-8.6055-3.4062-8.5508-1.3047 0.015625-2.6211 0.55469-3.5508 1.5781-0.875 0.98047-1.3086 2.1836-1.3086 3.3789zm-1.1367 10.801c0.82812 0.46484 1.793 0.85938 2.7109 1.1172 0.37109 0.10156 0.63672 0.39844 0.71875 0.75l0.83984 3.2344 3.543 0.003906 0.85547-3.2617c0.09375-0.36328 0.375-0.62891 0.71094-0.72266 0.97656-0.26953 1.8711-0.64062 2.7617-1.1406 0.34766-0.19531 0.76172-0.16406 1.0703 0.050781l2.8438 1.6719 2.5117-2.5039-1.6992-2.9102c-0.19141-0.32422-0.17969-0.70703-0.007812-1.0117 0.48047-0.85156 0.88281-1.8125 1.1445-2.7578 0.10156-0.37109 0.39844-0.63672 0.75-0.71875l3.2344-0.83984 0.003906-3.543-3.2617-0.85547c-0.36328-0.09375-0.62891-0.375-0.72266-0.71094-0.26953-0.97656-0.64063-1.8711-1.1406-2.7617-0.19531-0.34766-0.16406-0.76172 0.050782-1.0703l1.6719-2.8438c-0.83594-0.83594-1.6719-1.6719-2.5039-2.5117l-2.9062 1.6992c-0.32422 0.19141-0.70703 0.17969-1.0117 0.007812-0.84375-0.47656-1.8164-0.88281-2.7578-1.1445-0.37109-0.10156-0.63672-0.39844-0.71875-0.75l-0.83984-3.2344-3.543-0.003906-0.85938 3.2617c-0.20312 0.77734-0.94531 0.73047-1.6602 1.0273-0.73828 0.30469-0.98828 0.375-1.8164 0.83984-0.34766 0.19531-0.76172 0.16406-1.0703-0.046875l-2.8477-1.668-2.5078 2.5078 1.7031 2.9062c0.38281 0.65234-0.09375 1.1055-0.33203 1.6562-0.35938 0.82813-0.53125 1.1367-0.80469 2.1133-0.10156 0.37109-0.39844 0.63672-0.75 0.71875l-3.2344 0.84375v3.5469l3.2617 0.85156c0.36328 0.09375 0.62891 0.375 0.72266 0.71094 0.26953 0.96484 0.65234 1.8867 1.1445 2.7617 0.19531 0.34766 0.16406 0.76172-0.046876 1.0703l-1.668 2.8438c0.83594 0.83594 1.6719 1.6719 2.5078 2.5078l2.9102-1.7031c0.32813-0.20313 0.73047-0.18359 1.0391 0.011718zm0.52734 2.5039c0.35156 0.14453 0.71094 0.27734 1.082 0.39844l0.90234 3.4688c0.12109 0.46875 0.55078 0.77734 1.0195 0.75781l5.0742 0.003907c0.47266 0 0.86719-0.32422 0.98047-0.75781l0.90625-3.4648c0.73047-0.23437 1.4531-0.53516 2.1328-0.87891l3.0898 1.8164c0.40625 0.23828 0.91016 0.16016 1.2266-0.15625l3.6172-3.6094c0.34766-0.34375 0.39062-0.875 0.13672-1.2695l-1.7852-3.0547c0.35547-0.69141 0.64453-1.3906 0.88281-2.1289l3.4688-0.90234c0.46875-0.12109 0.77734-0.55469 0.75781-1.0195l0.003906-5.0742c0-0.47266-0.32031-0.86719-0.75781-0.98047l-3.4648-0.90625c-0.23438-0.73047-0.53125-1.4531-0.87891-2.1328l1.8164-3.0898c0.23828-0.40625 0.16016-0.90625-0.15625-1.2266l-3.6094-3.6172c-0.34375-0.34766-0.875-0.39062-1.2695-0.13672l-3.0547 1.7852c-0.28516-0.14844-0.57422-0.28125-0.86719-0.41016l-0.003906-33.781c0-0.5625-0.45312-1.0156-1.0156-1.0156h-9.4023c-0.5625 0-1.0156 0.45703-1.0156 1.0156v33.785c-0.28906 0.125-0.57031 0.25781-0.84766 0.39844l-3.0938-1.8125c-0.40625-0.23828-0.91016-0.16016-1.2266 0.15625l-0.19141 0.19141v-19.766c0-0.5625-0.45312-1.0156-1.0156-1.0156h-9.4023c-0.5625 0-1.0156 0.45703-1.0156 1.0156v40.027c0 0.5625 0.45312 1.0156 1.0156 1.0156h8.4102l-1.582 2.6992c-0.23828 0.40625-0.16016 0.90625 0.15625 1.2266l3.6133 3.6172c0.34375 0.34766 0.87891 0.39062 1.2695 0.13672l3.0547-1.7891c0.34375 0.17188 0.69141 0.33594 1.0391 0.48047zm-8.0312-8.4062c-0.058594-0.16406-0.11328-0.32812-0.16797-0.49219l-3.4648-0.90625c-0.4375-0.11328-0.75781-0.50781-0.75781-0.98047l0.003906-5.0742c-0.019531-0.46484 0.28906-0.89844 0.75781-1.0195l3.4688-0.90234c0.11719-0.37109 0.25-0.73047 0.39844-1.0859 0.070312-0.16797 0.14453-0.33984 0.22266-0.50781v-0.98437l-1.5273-2.6055c-0.25781-0.39453-0.21094-0.92578 0.13672-1.2695l1.3906-1.3867-0.003906-20.777h-7.3672v37.992zm9.8828-21.5 0.16406-0.62891c0.11328-0.4375 0.50781-0.75781 0.98047-0.75781l5.0742 0.003906c0.46484-0.019531 0.89453 0.28906 1.0195 0.75781l0.13281 0.51172-0.003906-29.332h-7.3672zm-52.102 8.2539h9.4023c0.5625 0 1.0156 0.45703 1.0156 1.0156v13.246c0 0.5625-0.45313 1.0156-1.0156 1.0156h-9.4023c-0.5625 0-1.0156-0.45312-1.0156-1.0156v-13.242c0-0.5625 0.45312-1.0195 1.0156-1.0195zm8.3867 2.0352h-7.3672v11.211h7.3672zm8.7578-15.277h9.4023c0.5625 0 1.0156 0.45312 1.0156 1.0156v26.488c0 0.5625-0.45312 1.0156-1.0156 1.0156h-9.4023c-0.5625 0-1.0156-0.45312-1.0156-1.0156v-26.488c0-0.5625 0.45312-1.0156 1.0156-1.0156zm8.3867 2.0312h-7.3672l-0.003906 24.457h7.3672z" fill-rule="evenodd"/>
<text x="0.0" y="117.5" font-size="5.0" font-weight="bold" font-family="Arbeit Regular, Helvetica, Arial-Unicode, Arial, Sans-serif" fill="#000000">Created by Riski Ayu</text><text x="0.0" y="122.5" font-size="5.0" font-weight="bold" font-family="Arbeit Regular, Helvetica, Arial-Unicode, Arial, Sans-serif" fill="#000000">from Noun Project</text></svg>